<?xml version="1.0" encoding="UTF-8" standalone="no"?>
<!-- Created with Inkscape (http://www.inkscape.org/) -->

<svg
   width="210mm"
   height="297mm"
   viewBox="0 0 210 297"
   version="1.1"
   id="svg5"
   xml:space="preserve"
   xmlns="http://www.w3.org/2000/svg"
   xmlns:svg="http://www.w3.org/2000/svg"><defs
     id="defs2" /><g
     id="layer1"><path
       style="fill:#000000;stroke-width:1.01626"
       d="m 103.65364,233.91374 c -0.4121,-4.41613 -0.74926,-15.14675 -0.74926,-23.84577 0,-13.98546 0.17476,-15.64185 1.50858,-14.30788 1.28999,1.29 1.39854,4.74534 0.74926,23.84581 -0.65608,19.3 -0.86123,21.24545 -1.50858,14.30784 z m 8.83533,-23.45963 c 1.73712,-9.2598 -4.35525,-17.4722 -16.486797,-22.22387 -8.816316,-3.45316 -13.751015,-7.7785 -15.487752,-13.57527 -2.47409,-8.25776 1.710081,-13.20494 12.216006,-14.44369 l 6.108886,-0.7203 v 3.74864 c 0,3.56005 -0.19589,3.77995 -3.893563,4.37123 -4.652156,0.74392 -7.738767,3.72122 -6.829108,6.58724 0.805146,2.53681 4.059224,4.68162 11.099164,7.31561 11.528824,4.31347 18.932464,12.90916 18.932464,21.98075 0,6.03537 -1.81921,10.5015 -4.27759,10.5015 -1.78644,0 -1.96182,-0.44958 -1.38171,-3.54184 z m -8.82243,-30.11241 c -1.59097,-0.89422 -1.77845,-2.9299 -1.77845,-19.31241 v -18.31283 l 2.28661,0.32456 c 2.09122,0.29691 2.30997,0.93244 2.56052,7.43852 0.15056,3.91261 -0.078,12.45707 -0.50813,18.98765 -0.71768,10.89644 -0.92848,11.79154 -2.56055,10.87432 z m 6.09756,-11.65081 c -0.4192,-0.42093 -0.76217,-2.47505 -0.76217,-4.56466 v -3.79926 l 6.00687,0.54465 c 9.83787,0.89207 14.31829,-1.23645 14.31829,-6.8023 0,-4.42012 -5.25841,-8.35117 -14.7885,-11.05538 C 92.781205,136.84014 86.7597,134.6229 81.814746,130.96421 69.241721,121.66171 65.410382,106.938 72.55472,95.378256 c 4.121026,-6.66797 16.17475,-14.439659 22.47365,-14.489938 2.735776,-0.02305 2.794697,0.104091 2.794697,5.978638 v 6.00099 l -4.506737,2.64114 c -5.961623,3.49375 -8.981786,7.856154 -8.981786,12.973484 0,7.30981 7.31023,14.04005 20.240616,18.63475 26.8304,9.53392 34.06765,15.14467 34.06765,26.41119 0,5.43337 -2.21432,9.81639 -6.50566,12.87719 -2.76128,1.9695 -4.85319,2.42408 -12.46451,2.70862 -5.0305,0.18821 -9.4893,-0.002 -9.90854,-0.42343 z m -5.95755,-44.45016 -2.65474,-0.98575 -0.73919,-26.455254 C 99.689284,70.911757 99.623872,70.305535 97.361419,68.525894 88.494133,61.550867 94.287598,47.36874 105.44503,48.737704 c 5.56919,0.68331 9.65446,5.239557 9.65446,10.767495 0,3.079429 -0.76877,4.888838 -3.30286,7.773683 l -3.30282,3.76005 -0.50816,26.678564 c -0.27962,14.673194 -0.73678,26.865424 -1.01625,27.093774 -0.27962,0.22854 -1.70274,-0.0269 -3.16285,-0.57054 z m 13.83359,0.41844 c -4.18785,-1.82969 -7.08161,-6.10728 -6.97157,-10.30535 0.12023,-4.58344 4.19216,-10.70328 8.11373,-12.19427 5.45596,-2.07432 3.36654,-7.106464 -3.84828,-9.268094 -3.89168,-1.16597 -3.89959,-1.17937 -3.89959,-6.61628 0,-5.42327 0.0115,-5.444972 2.79473,-4.797844 13.01662,3.027804 21.10319,11.488524 22.32862,23.361768 0.46645,4.51937 0.10946,6.34049 -2.14515,10.94921 -1.48758,3.04048 -3.87328,6.29387 -5.30159,7.22972 -3.1675,2.07544 -8.32652,2.84022 -11.0709,1.64114 z"
       id="path179" /></g></svg>
